<?xml version="1.0" encoding="UTF-8" standalone="no"?>
<!-- Created with Inkscape (http://www.inkscape.org/) -->

<svg
   width="91.651382mm"
   height="39.431187mm"
   viewBox="0 0 91.651382 39.431187"
   version="1.1"
   id="svg1"
   sodipodi:docname="simplicialcomplex.svg"
   inkscape:version="1.3.2 (091e20ef0f, 2023-11-25)"
   xmlns:inkscape="http://www.inkscape.org/namespaces/inkscape"
   xmlns:sodipodi="http://sodipodi.sourceforge.net/DTD/sodipodi-0.dtd"
   xmlns="http://www.w3.org/2000/svg"
   xmlns:svg="http://www.w3.org/2000/svg">
  <sodipodi:namedview
     id="namedview1"
     pagecolor="#505050"
     bordercolor="#ffffff"
     borderopacity="1"
     inkscape:showpageshadow="0"
     inkscape:pageopacity="0"
     inkscape:pagecheckerboard="1"
     inkscape:deskcolor="#505050"
     inkscape:document-units="mm"
     inkscape:zoom="2.4826867"
     inkscape:cx="173.19946"
     inkscape:cy="74.314653"
     inkscape:window-width="2556"
     inkscape:window-height="1401"
     inkscape:window-x="0"
     inkscape:window-y="0"
     inkscape:window-maximized="1"
     inkscape:current-layer="svg1" />
  <defs
     id="defs1">
    <linearGradient
       x1="0"
       y1="0"
       x2="1"
       y2="0"
       gradientUnits="userSpaceOnUse"
       gradientTransform="matrix(-10.379105,10.379178,-10.379178,-10.379105,109.41003,118.9651)"
       spreadMethod="pad"
       id="linearGradient2">
      <stop
         style="stop-opacity:1;stop-color:#ffffff icc-color(sRGB-IEC61966-2.1, 1, 1, 1);"
         offset="0"
         id="stop1" />
      <stop
         style="stop-opacity:1;stop-color:#d3d2d2 icc-color(sRGB-IEC61966-2.1, 0.82743835, 0.82351685, 0.82351685);"
         offset="1"
         id="stop2" />
    </linearGradient>
    <clipPath
       clipPathUnits="userSpaceOnUse"
       id="clipPath9">
      <path
         d="M 174,604.667 H 438.001 V 720 H 174 Z"
         transform="translate(-259.876,-714.59012)"
         id="path9" />
    </clipPath>
    <clipPath
       clipPathUnits="userSpaceOnUse"
       id="clipPath11">
      <path
         d="M 174,604.667 H 438.001 V 720 H 174 Z"
         transform="translate(-260.12821,-714.85192)"
         id="path11" />
    </clipPath>
    <clipPath
       clipPathUnits="userSpaceOnUse"
       id="clipPath13">
      <path
         d="m 225.042,615.61 h 54.027 v 46.247 h -54.027 z"
         transform="translate(-229.99101,-661.58842)"
         id="path13" />
    </clipPath>
    <clipPath
       clipPathUnits="userSpaceOnUse"
       id="clipPath15">
      <path
         d="m 225.042,615.61 h 54.027 v 46.247 h -54.027 z"
         transform="translate(-230.01991,-661.85741)"
         id="path15" />
    </clipPath>
    <clipPath
       clipPathUnits="userSpaceOnUse"
       id="clipPath17">
      <path
         d="m 225.042,615.61 h 54.027 v 46.247 h -54.027 z"
         transform="translate(-278.82891,-642.95132)"
         id="path17" />
    </clipPath>
    <clipPath
       clipPathUnits="userSpaceOnUse"
       id="clipPath19">
      <path
         d="M 174,604.667 H 438.001 V 720 H 174 Z"
         transform="translate(-230.02,-661.85732)"
         id="path19" />
    </clipPath>
    <clipPath
       clipPathUnits="userSpaceOnUse"
       id="clipPath21">
      <path
         d="M 174,604.667 H 438.001 V 720 H 174 Z"
         transform="translate(-225.04251,-615.61022)"
         id="path21" />
    </clipPath>
    <clipPath
       clipPathUnits="userSpaceOnUse"
       id="clipPath23">
      <path
         d="M 174,604.667 H 438.001 V 720 H 174 Z"
         transform="translate(-185.61621,-645.43931)"
         id="path23" />
    </clipPath>
    <clipPath
       clipPathUnits="userSpaceOnUse"
       id="clipPath25">
      <path
         d="M 174,604.667 H 438.001 V 720 H 174 Z"
         transform="translate(-231.36231,-661.85732)"
         id="path25" />
    </clipPath>
    <clipPath
       clipPathUnits="userSpaceOnUse"
       id="clipPath27">
      <path
         d="M 174,604.667 H 438.001 V 720 H 174 Z"
         transform="translate(-226.38481,-615.61022)"
         id="path27" />
    </clipPath>
    <clipPath
       clipPathUnits="userSpaceOnUse"
       id="clipPath29">
      <path
         d="M 174,604.667 H 438.001 V 720 H 174 Z"
         transform="translate(-280.2178,-643.05311)"
         id="path29" />
    </clipPath>
    <clipPath
       clipPathUnits="userSpaceOnUse"
       id="clipPath31">
      <path
         d="M 174,604.667 H 438.001 V 720 H 174 Z"
         transform="translate(-283.12551,-669.41831)"
         id="path31" />
    </clipPath>
    <clipPath
       clipPathUnits="userSpaceOnUse"
       id="clipPath33">
      <path
         d="M 174,604.667 H 438.001 V 720 H 174 Z"
         transform="translate(-261.4126,-714.59022)"
         id="path33" />
    </clipPath>
    <clipPath
       clipPathUnits="userSpaceOnUse"
       id="clipPath35">
      <path
         d="M 174,604.667 H 438.001 V 720 H 174 Z"
         transform="matrix(1,0,0,-1,-252.103,711.83352)"
         id="path35" />
    </clipPath>
    <clipPath
       clipPathUnits="userSpaceOnUse"
       id="clipPath38">
      <path
         d="M 174,604.667 H 438.001 V 720 H 174 Z"
         transform="matrix(1,0,0,-1,-217.7695,607.66702)"
         id="path38" />
    </clipPath>
    <linearGradient
       x1="0"
       y1="0"
       x2="1"
       y2="0"
       gradientUnits="userSpaceOnUse"
       gradientTransform="matrix(-7.6208442,7.6208974,-7.6208974,-7.6208442,157.43414,117.60342)"
       spreadMethod="pad"
       id="linearGradient40">
      <stop
         style="stop-opacity:1;stop-color:#ffffff icc-color(sRGB-IEC61966-2.1, 1, 1, 1);"
         offset="0"
         id="stop39" />
      <stop
         style="stop-opacity:1;stop-color:#d3d2d2 icc-color(sRGB-IEC61966-2.1, 0.82743835, 0.82351685, 0.82351685);"
         offset="1"
         id="stop40" />
    </linearGradient>
    <clipPath
       clipPathUnits="userSpaceOnUse"
       id="clipPath42">
      <path
         d="m 393.401,653.8 h 31.528 v 43.709 h -31.528 z"
         transform="translate(-394.21181,-696.66881)"
         id="path42" />
    </clipPath>
    <clipPath
       clipPathUnits="userSpaceOnUse"
       id="clipPath44">
      <path
         d="m 360.543,653.994 h 61.672 v 43.322 h -61.672 z"
         transform="translate(-393.25501,-697.16152)"
         id="path44" />
    </clipPath>
    <clipPath
       clipPathUnits="userSpaceOnUse"
       id="clipPath46">
      <path
         d="m 360.474,662.539 h 64.717 v 18.072 h -64.717 z"
         transform="translate(-423.07221,-680.07212)"
         id="path46" />
    </clipPath>
    <clipPath
       clipPathUnits="userSpaceOnUse"
       id="clipPath48">
      <path
         d="m 360.474,662.539 h 64.717 v 18.072 h -64.717 z"
         transform="translate(-405.80401,-675.37432)"
         id="path48" />
    </clipPath>
    <clipPath
       clipPathUnits="userSpaceOnUse"
       id="clipPath50">
      <path
         d="m 360.474,662.539 h 64.717 v 18.072 h -64.717 z"
         transform="translate(-360.68771,-662.76962)"
         id="path50" />
    </clipPath>
    <clipPath
       clipPathUnits="userSpaceOnUse"
       id="clipPath52">
      <path
         d="m 360.474,662.539 h 64.717 v 18.072 h -64.717 z"
         transform="translate(-362.63311,-663.62951)"
         id="path52" />
    </clipPath>
    <clipPath
       clipPathUnits="userSpaceOnUse"
       id="clipPath54">
      <path
         d="M 174,604.667 H 438.001 V 720 H 174 Z"
         transform="translate(-422.14841,-653.82431)"
         id="path54" />
    </clipPath>
    <clipPath
       clipPathUnits="userSpaceOnUse"
       id="clipPath56">
      <path
         d="M 174,604.667 H 438.001 V 720 H 174 Z"
         transform="translate(-393.42401,-697.84792)"
         id="path56" />
    </clipPath>
    <clipPath
       clipPathUnits="userSpaceOnUse"
       id="clipPath58">
      <path
         d="m 360.349,646.567 h 62.059 v 16.223 h -62.059 z"
         transform="translate(-361.12411,-662.67802)"
         id="path58" />
    </clipPath>
    <clipPath
       clipPathUnits="userSpaceOnUse"
       id="clipPath60">
      <path
         d="m 360.349,646.567 h 62.059 v 16.223 h -62.059 z"
         transform="translate(-360.66411,-662.74472)"
         id="path60" />
    </clipPath>
    <clipPath
       clipPathUnits="userSpaceOnUse"
       id="clipPath62">
      <path
         d="m 360.349,646.567 h 62.059 v 16.223 h -62.059 z"
         transform="translate(-360.35001,-662.79022)"
         id="path62" />
    </clipPath>
    <clipPath
       clipPathUnits="userSpaceOnUse"
       id="clipPath64">
      <path
         d="m 360.349,646.567 h 62.059 v 16.223 h -62.059 z"
         transform="translate(-422.20611,-653.82862)"
         id="path64" />
    </clipPath>
    <clipPath
       clipPathUnits="userSpaceOnUse"
       id="clipPath66">
      <path
         d="M 174,604.667 H 438.001 V 720 H 174 Z"
         transform="translate(-360.34861,-662.79041)"
         id="path66" />
    </clipPath>
    <clipPath
       clipPathUnits="userSpaceOnUse"
       id="clipPath68">
      <path
         d="M 174,604.667 H 438.001 V 720 H 174 Z"
         transform="translate(-371.38381,-646.56722)"
         id="path68" />
    </clipPath>
    <clipPath
       clipPathUnits="userSpaceOnUse"
       id="clipPath70">
      <path
         d="M 174,604.667 H 438.001 V 720 H 174 Z"
         transform="translate(-338.96291,-626.35582)"
         id="path70" />
    </clipPath>
    <clipPath
       clipPathUnits="userSpaceOnUse"
       id="clipPath72">
      <path
         d="M 174,604.667 H 438.001 V 720 H 174 Z"
         transform="translate(-361.69141,-662.79041)"
         id="path72" />
    </clipPath>
    <clipPath
       clipPathUnits="userSpaceOnUse"
       id="clipPath74">
      <path
         d="M 174,604.667 H 438.001 V 720 H 174 Z"
         transform="translate(-372.72561,-646.56722)"
         id="path74" />
    </clipPath>
    <clipPath
       clipPathUnits="userSpaceOnUse"
       id="clipPath76">
      <path
         d="M 174,604.667 H 438.001 V 720 H 174 Z"
         transform="translate(-423.55661,-653.99402)"
         id="path76" />
    </clipPath>
    <clipPath
       clipPathUnits="userSpaceOnUse"
       id="clipPath78">
      <path
         d="M 174,604.667 H 438.001 V 720 H 174 Z"
         transform="translate(-426.46481,-680.35922)"
         id="path78" />
    </clipPath>
    <clipPath
       clipPathUnits="userSpaceOnUse"
       id="clipPath80">
      <path
         d="M 174,604.667 H 438.001 V 720 H 174 Z"
         transform="translate(-394.74321,-697.50862)"
         id="path80" />
    </clipPath>
    <filter
       style="color-interpolation-filters:sRGB;"
       inkscape:label="Invert"
       id="filter2"
       x="0"
       y="0"
       width="1"
       height="1">
      <feColorMatrix
         type="hueRotate"
         values="180"
         result="color1"
         id="feColorMatrix1" />
      <feColorMatrix
         values="-1 0 0 0 1 0 -1 0 0 1 0 0 -1 0 1 -0.21 -0.72 -0.07 2 0 "
         result="color2"
         id="feColorMatrix2" />
    </filter>
  </defs>
  <g
     id="layer1"
     transform="translate(-66.674999,-104.51041)"
     style="filter:url(#filter2)">
    <path
       id="path2"
       d="m 102.73634,119.5375 1.24001,2.57951 0.008,0.0487 -0.86395,9.1059 6.32636,-13.82465 z"
       style="fill:url(#linearGradient2);stroke:none;stroke-width:0.352778" />
    <path
       id="path3"
       d="m 102.96547,130.95793 0.83397,-8.78381 -7.1815,-14.93979 z m -0.0314,-8.74324 0.7807,-0.1143 0.0268,0.18203 -0.78105,0.1143 z m -1.56174,0.2293 0.78069,-0.11465 0.0265,0.18203 -0.7807,0.11465 z"
       style="fill:#c3c4d6 icc-color(sRGB-IEC61966-2, 0.1, 0.76399231, 0.76799011, 0.84098816);fill-opacity:1;fill-rule:nonzero;stroke:none;stroke-width:0.352778" />
    <path
       id="path4"
       d="m 95.917926,106.96509 -10.050286,17.75213 0.66922,-0.0981 0.02646,0.18168 -0.484717,0.0713 16.810207,6.51087 -2.31104,-8.63671 -0.740481,0.10866 -0.02681,-0.18204 0.719311,-0.10548 -4.314822,-16.12547 z m 2.331155,15.93674 0.780698,-0.11466 0.02681,0.18204 -0.78105,0.11465 z m -1.561747,0.2286 0.78105,-0.11395 0.02646,0.18168 -0.78105,0.11465 z m -1.561394,0.22895 0.780697,-0.1143 0.02646,0.18238 -0.780697,0.1143 z m -1.5621,0.22895 0.78105,-0.1143 0.02681,0.18239 -0.78105,0.1143 z m -1.561394,0.22931 0.780697,-0.11466 0.02681,0.18239 -0.780697,0.1143 z m -1.561748,0.22895 0.78105,-0.11465 0.02681,0.18238 -0.78105,0.1143 z m -1.561394,0.22895 0.780697,-0.11465 0.02681,0.18239 -0.780697,0.11465 z m -1.561747,0.22895 0.78105,-0.11465 0.02646,0.18204 -0.78105,0.11465 z"
       style="fill:#d7d8e4 icc-color(sRGB-IEC61966-2, 0.1, 0.84399414, 0.84599304, 0.89498901);fill-opacity:1;fill-rule:nonzero;stroke:none;stroke-width:0.352778" />
    <path
       id="path5"
       d="m 102.93404,122.21461 0.0268,0.18239 0.7807,-0.1143 -0.0268,-0.18239 z m -1.56175,0.22931 0.0265,0.18203 0.78105,-0.1143 -0.0268,-0.18239 z"
       style="fill:#9c9dab icc-color(sRGB-IEC61966-2, 0.1, 0.61099243, 0.61399841, 0.67199707);fill-opacity:1;fill-rule:nonzero;stroke:none;stroke-width:0.352778" />
    <path
       id="path6"
       d="m 100.5299,122.56718 -0.719314,0.10548 0.02681,0.18203 0.740484,-0.1083 -0.048,-0.17921 m -1.500012,0.22013 -0.78105,0.1143 0.02681,0.18239 0.78105,-0.11465 -0.02681,-0.18204 m -1.561747,0.22896 -0.780697,0.1143 0.02646,0.18238 0.78105,-0.11465 -0.02681,-0.18203 m -1.561747,0.22895 -0.780698,0.1143 0.02681,0.18238 0.780697,-0.11465 -0.02681,-0.18203 m -1.561395,0.22895 -0.78105,0.1143 0.02681,0.18239 0.780698,-0.11466 -0.02646,-0.18203 m -1.561747,0.22895 -0.780697,0.1143 0.02646,0.18239 0.78105,-0.11465 -0.02681,-0.18204 m -1.561747,0.22896 -0.780697,0.1143 0.02681,0.18238 0.780697,-0.11465 -0.02681,-0.18203 m -1.561394,0.22895 -0.78105,0.1143 0.02681,0.18239 0.780697,-0.11466 -0.02646,-0.18203 m -1.561747,0.22895 -0.780698,0.1143 0.02646,0.18239 0.78105,-0.11465 z"
       style="fill:#acadb7 icc-color(sRGB-IEC61966-2, 0.1, 0.67498779, 0.67698669, 0.71598816);fill-opacity:1;fill-rule:nonzero;stroke:none;stroke-width:0.352778" />
    <path
       id="path7"
       d="m 85.867463,124.71715 -0.03387,0.06 0.245181,0.0949 0.484717,-0.0709 -0.02681,-0.18203 z"
       style="fill:#acadb7 icc-color(sRGB-IEC61966-2, 0.1, 0.67498779, 0.67698669, 0.71598816);fill-opacity:1;fill-rule:nonzero;stroke:none;stroke-width:0.352778" />
    <path
       id="path8"
       d="M 0,0 0.227,-0.128 -29.48,-52.599 18.966,-71.363 21.447,-45.22 -0.235,-0.113 0,0 0.227,-0.128 0,0 l 0.235,0.113 21.714,-45.172 0.025,-0.138 -2.521,-26.559 -0.123,-0.197 -0.231,-0.021 -49.049,18.998 -0.152,0.155 0.019,0.217 29.856,52.733 c 0.048,0.085 0.138,0.135 0.236,0.132 0.097,-0.003 0.184,-0.06 0.226,-0.148 z"
       style="fill:#000100;fill-opacity:1;fill-rule:nonzero;stroke:none"
       transform="matrix(0.35277776,0,0,-0.35277776,96.233238,106.2215)"
       clip-path="url(#clipPath9)" />
    <path
       id="path10"
       d="m 0,0 19.193,-71.731 c 0.037,-0.139 -0.046,-0.282 -0.185,-0.32 -0.139,-0.037 -0.282,0.046 -0.319,0.185 L -0.504,-0.135 C -0.542,0.004 -0.459,0.148 -0.32,0.185 -0.18,0.222 -0.037,0.139 0,0"
       style="fill:#000100;fill-opacity:1;fill-rule:nonzero;stroke:none"
       transform="matrix(0.35277776,0,0,-0.35277776,96.322209,106.12915)"
       clip-path="url(#clipPath11)" />
    <path
       id="path12"
       d="m 0,0 -4.949,-45.974 v -0.004 l 53.714,27.09 z"
       style="fill:#d7d8e4 icc-color(sRGB-IEC61966-2, 0.1, 0.84399414, 0.84599304, 0.89498901);fill-opacity:1;fill-rule:nonzero;stroke:none"
       transform="matrix(0.35277776,0,0,-0.35277776,85.690476,124.91932)"
       clip-path="url(#clipPath13)" />
    <path
       id="path14"
       d="m 0,0 -0.029,-0.269 48.765,-18.888 0.218,0.11 c -0.064,0.025 -0.117,0.075 -0.145,0.141 z"
       style="fill:#0b0d18 icc-color(sRGB-IEC61966-2, 0.1, 0.04299927, 0.05099487, 0.09399414);fill-opacity:1;fill-rule:nonzero;stroke:none"
       transform="matrix(0.35277776,0,0,-0.35277776,85.70067,124.82443)"
       clip-path="url(#clipPath15)" />
    <path
       id="path16"
       d="M 0,0 C 0.028,-0.066 0.081,-0.116 0.145,-0.141 L 0.24,-0.093 Z"
       style="fill:#0b0d18 icc-color(sRGB-IEC61966-2, 0.1, 0.04299927, 0.05099487, 0.09399414);fill-opacity:1;fill-rule:nonzero;stroke:none"
       transform="matrix(0.35277776,0,0,-0.35277776,102.9194,131.49408)"
       clip-path="url(#clipPath17)" />
    <path
       id="path18"
       d="m 0,0 -4.978,-46.247 54.027,27.248 z"
       style="fill:none;stroke:#000100;stroke-width:0.522;stroke-linecap:round;stroke-linejoin:round;stroke-miterlimit:4;stroke-dasharray:none;stroke-opacity:1"
       transform="matrix(0.35277776,0,0,-0.35277776,85.700705,124.82446)"
       clip-path="url(#clipPath19)" />
    <path
       id="path20"
       d="M 0,0 -40.769,29.829 4.978,46.247"
       style="fill:none;stroke:#000100;stroke-width:0.522;stroke-linecap:round;stroke-linejoin:round;stroke-miterlimit:4;stroke-dasharray:none;stroke-opacity:1"
       transform="matrix(0.35277776,0,0,-0.35277776,83.944755,141.13941)"
       clip-path="url(#clipPath21)" />
    <path
       id="path22"
       d="m 0,0 c 0,-0.742 -0.601,-1.342 -1.342,-1.342 -0.741,0 -1.343,0.6 -1.343,1.342 0,0.741 0.602,1.342 1.343,1.342 C -0.601,1.342 0,0.741 0,0"
       style="fill:#000100;fill-opacity:1;fill-rule:nonzero;stroke:none"
       transform="matrix(0.35277776,0,0,-0.35277776,70.036033,130.61637)"
       clip-path="url(#clipPath23)" />
    <path
       id="path24"
       d="m 0,0 c 0,-0.741 -0.601,-1.342 -1.342,-1.342 -0.741,0 -1.343,0.601 -1.343,1.342 0,0.742 0.602,1.342 1.343,1.342 C -0.601,1.342 0,0.742 0,0"
       style="fill:#000100;fill-opacity:1;fill-rule:nonzero;stroke:none"
       transform="matrix(0.35277776,0,0,-0.35277776,86.17424,124.82446)"
       clip-path="url(#clipPath25)" />
    <path
       id="path26"
       d="m 0,0 c 0,-0.741 -0.601,-1.342 -1.342,-1.342 -0.742,0 -1.343,0.601 -1.343,1.342 0,0.742 0.601,1.342 1.343,1.342 C -0.601,1.342 0,0.742 0,0"
       style="fill:#000100;fill-opacity:1;fill-rule:nonzero;stroke:none"
       transform="matrix(0.35277776,0,0,-0.35277776,84.418288,141.13941)"
       clip-path="url(#clipPath27)" />
    <path
       id="path28"
       d="m 0,0 c 0,-0.741 -0.601,-1.342 -1.342,-1.342 -0.742,0 -1.343,0.601 -1.343,1.342 0,0.741 0.601,1.342 1.343,1.342 C -0.601,1.342 0,0.741 0,0"
       style="fill:#000100;fill-opacity:1;fill-rule:nonzero;stroke:none"
       transform="matrix(0.35277776,0,0,-0.35277776,103.40937,131.45817)"
       clip-path="url(#clipPath29)" />
    <path
       id="path30"
       d="m 0,0 c 0,-0.741 -0.601,-1.342 -1.342,-1.342 -0.741,0 -1.343,0.601 -1.343,1.342 0,0.741 0.602,1.342 1.343,1.342 C -0.601,1.342 0,0.741 0,0"
       style="fill:#000100;fill-opacity:1;fill-rule:nonzero;stroke:none"
       transform="matrix(0.35277776,0,0,-0.35277776,104.43515,122.15711)"
       clip-path="url(#clipPath31)" />
    <path
       id="path32"
       d="m 0,0 c 0,-0.741 -0.601,-1.342 -1.342,-1.342 -0.741,0 -1.343,0.601 -1.343,1.342 0,0.741 0.602,1.342 1.343,1.342 C -0.601,1.342 0,0.741 0,0"
       style="fill:#000100;fill-opacity:1;fill-rule:nonzero;stroke:none"
       transform="matrix(0.35277776,0,0,-0.35277776,96.775316,106.22147)"
       clip-path="url(#clipPath33)" />
    <path
       id="path34"
       d="m 0.32766406,-3.3295859 c 0,-1.0136719 0.0732422,-1.7988282 0.22265625,-2.3554688 0.14648438,-0.5625 0.41308594,-1.0224609 0.79687499,-1.3828125 0.3896485,-0.3574219 0.881836,-0.5390625 1.4765625,-0.5390625 0.3046875,0 0.5800781,0.052734 0.8320313,0.1523438 0.2578125,0.102539 0.46875,0.2314453 0.6328125,0.3867187 0.1640625,0.1582031 0.2988281,0.3486328 0.4101562,0.5742188 0.1171875,0.2285156 0.1992188,0.4541015 0.2460938,0.6796875 0.1083984,0.524414 0.1640625,1.0957031 0.1640625,1.7109375 0,0.805664 -0.064453,1.4941406 -0.1875,2.0625 -0.079102,0.328125 -0.1845703,0.6298828 -0.3164063,0.9023437 -0.1347656,0.26660157 -0.290039,0.49804689 -0.46875,0.69140626 -0.1816406,0.1875 -0.3984375,0.33691406 -0.65625,0.4453125 -0.2578125,0.1171875 -0.5507812,0.17578125 -0.8789062,0.17578125 -0.3925782,0 -0.7265625,-0.08203125 -1.0078125,-0.24609375 C 1.3178984,-0.24169531 1.1011016,-0.45849219 0.93703906,-0.71630469 0.70266406,-1.0825156 0.54153125,-1.5014609 0.45657031,-1.9702109 0.36867969,-2.4448203 0.32766406,-2.8989219 0.32766406,-3.3295859 Z M 1.2534453,-3.6342734 c 0,0.515625 0.035156,1.0253906 0.1054688,1.5234375 0.070312,0.4921875 0.1787109,0.890625 0.328125,1.19531246 0.09375,0.2109375 0.2373047,0.38378906 0.4335937,0.515625 0.1933594,0.13476563 0.413086,0.19921875 0.65625,0.19921875 0.4042969,0 0.7177735,-0.16992187 0.9375,-0.515625 0.3105469,-0.48339841 0.46875,-1.45312501 0.46875,-2.90625001 0,-0.6240234 -0.035156,-1.1835937 -0.1054687,-1.6757812 -0.064453,-0.4980469 -0.1728516,-0.9082032 -0.328125,-1.2304688 -0.09375,-0.2021484 -0.234375,-0.3662109 -0.421875,-0.4921875 -0.1816407,-0.1318359 -0.3955078,-0.1992187 -0.6445313,-0.1992187 -0.28125,0 -0.5332031,0.09082 -0.75,0.2695312 -0.2197265,0.1816406 -0.3867187,0.5039063 -0.5039062,0.9726563 -0.1171875,0.46875 -0.1757813,1.2509765 -0.1757813,2.34375 z m 0,0"
       style="fill:#000000;fill-opacity:1;fill-rule:nonzero;stroke:none"
       aria-label="0"
       transform="matrix(0.35277776,0,0,0.35277776,93.491096,107.19397)"
       clip-path="url(#clipPath35)" />
    <path
       id="path36"
       d="m 105.06956,120.73475 -0.0331,-0.0124 -0.0207,-0.15296 0.0207,-0.0207 c 0.13436,-0.0382 0.28215,-0.092 0.44235,-0.16123 0.23357,-0.0992 0.38447,-0.16536 0.45062,-0.19844 l 0.0496,0.0165 c -0.0196,0.57878 -0.0289,0.91157 -0.0289,0.99632 v 0.70693 c 0,0.27906 0.002,0.49093 0.008,0.63666 0.005,0.0827 0.0165,0.13539 0.0331,0.15709 0.0165,0.0227 0.0413,0.0393 0.0744,0.0496 0.0331,0.008 0.14263,0.0165 0.33073,0.0248 v 0.11575 c -0.32039,-0.0103 -0.5209,-0.0165 -0.60358,-0.0165 -0.061,0 -0.27492,0.006 -0.64079,0.0165 V 122.777 c 0.19224,-0.0103 0.30283,-0.0186 0.33073,-0.0248 0.03,-0.008 0.0517,-0.0186 0.0662,-0.0331 0.0165,-0.0134 0.0269,-0.0331 0.0331,-0.0579 0.0103,-0.0413 0.0186,-0.15399 0.0248,-0.33899 0.008,-0.18707 0.0124,-0.32867 0.0124,-0.42582 v -0.74414 c 0,-0.30592 0,-0.49713 0,-0.57464 0,-0.0331 -0.006,-0.0537 -0.0165,-0.062 -0.003,-0.005 -0.0103,-0.008 -0.0207,-0.008 -0.0114,0 -0.0403,0.0103 -0.0868,0.0289 -0.21497,0.0971 -0.3576,0.1633 -0.42581,0.19844 z m -1.16272,12.44885 v -0.10749 c 0.0382,-0.0496 0.10852,-0.12609 0.21084,-0.23151 l 0.42168,-0.43822 c 0.0331,-0.0331 0.11265,-0.12195 0.23978,-0.26871 0.0961,-0.10956 0.17156,-0.20878 0.22737,-0.29766 0.0548,-0.091 0.0951,-0.1788 0.11989,-0.26458 0.0248,-0.0848 0.0372,-0.1664 0.0372,-0.24392 0,-0.13229 -0.0372,-0.24494 -0.11162,-0.33899 -0.0941,-0.12919 -0.23151,-0.19431 -0.41341,-0.19431 -0.0992,0 -0.1881,0.0165 -0.26458,0.0496 -0.0744,0.0331 -0.1261,0.0703 -0.15297,0.11162 -0.0248,0.0393 -0.062,0.15193 -0.11162,0.339 h -0.11575 c 0.03,-0.16743 0.0517,-0.34106 0.0661,-0.5209 0.0796,-0.0765 0.14573,-0.13229 0.19844,-0.16536 0.0548,-0.0331 0.12092,-0.0589 0.19844,-0.0786 0.0765,-0.0186 0.16226,-0.0289 0.25631,-0.0289 0.16537,0 0.30386,0.0289 0.41755,0.0868 0.11575,0.0558 0.2067,0.13952 0.27285,0.25218 0.0682,0.11059 0.10335,0.23564 0.10335,0.3762 0,0.15193 -0.0393,0.30076 -0.11575,0.44649 -0.0775,0.14676 -0.23875,0.3421 -0.48369,0.58704 l -0.3266,0.32246 c -0.11575,0.11576 -0.20464,0.20981 -0.26458,0.28112 h 0.83095 c 0.16537,0 0.32867,-0.008 0.49196,-0.0248 l 0.0124,0.0124 c -0.008,0.0496 -0.0124,0.10646 -0.0124,0.1695 0,0.0579 0.004,0.10749 0.0124,0.14883 l -0.0124,0.0207 c -0.091,-0.005 -0.1943,-0.009 -0.31005,-0.0124 -0.25632,-0.005 -0.42892,-0.008 -0.51677,-0.008 -0.11059,0 -0.29559,0.003 -0.55397,0.008 -0.14366,0.003 -0.26045,0.007 -0.3514,0.0124 z m -20.034951,-9.46402 c -0.01964,-0.10749 -0.03617,-0.19017 -0.04961,-0.24805 -0.0083,-0.0382 -0.03617,-0.14263 -0.08268,-0.31419 l 0.103353,-0.0413 c 0.07958,0.2129 0.170532,0.3576 0.272851,0.43408 0.101286,0.0744 0.235645,0.11162 0.401009,0.11162 0.124024,0 0.227377,-0.0227 0.310059,-0.0703 0.08268,-0.0496 0.148828,-0.12609 0.198437,-0.23151 0.05168,-0.10439 0.07855,-0.22324 0.07855,-0.35554 0,-0.17363 -0.04548,-0.30695 -0.136426,-0.401 -0.08888,-0.0961 -0.208773,-0.1447 -0.359668,-0.1447 -0.04961,0 -0.09715,0.006 -0.14056,0.0165 -0.04444,0.0114 -0.109554,0.0351 -0.194304,0.0703 l -0.0248,-0.0207 0.04134,-0.20671 c 0.101286,0.006 0.170532,0.008 0.206706,0.008 0.150895,0 0.268717,-0.0537 0.351399,-0.16123 0.08475,-0.10749 0.128158,-0.22944 0.128158,-0.36794 0,-0.12092 -0.04444,-0.22427 -0.132292,-0.31006 -0.08888,-0.0847 -0.201538,-0.12815 -0.338997,-0.12815 -0.08268,0 -0.163298,0.0165 -0.239779,0.0496 -0.07441,0.031 -0.14056,0.0744 -0.198437,0.13229 -0.02274,0.0475 -0.05788,0.13642 -0.107488,0.26872 h -0.11576 l 0.115755,-0.45476 c 0.08475,-0.0879 0.165365,-0.14986 0.239779,-0.18603 0.120923,-0.0548 0.254248,-0.0827 0.401009,-0.0827 0.214974,0 0.384473,0.0568 0.508496,0.16949 0.124024,0.11369 0.186036,0.25012 0.186036,0.40928 0,0.10749 -0.03307,0.21498 -0.09922,0.32246 -0.06408,0.10542 -0.172599,0.21291 -0.326595,0.32246 0.142627,0.0196 0.256315,0.0527 0.338997,0.0992 0.08268,0.0444 0.145728,0.10956 0.190169,0.19431 0.04341,0.0827 0.06615,0.17673 0.06615,0.28112 0,0.14882 -0.04754,0.29662 -0.14056,0.44235 -0.09405,0.14676 -0.227376,0.26665 -0.401009,0.35966 -0.171565,0.093 -0.357601,0.14056 -0.558105,0.14056 -0.08888,0 -0.169499,-0.008 -0.243913,-0.0248 -0.07235,-0.0165 -0.155029,-0.0434 -0.248047,-0.0827 z m 0,0"
       style="fill:#000000;fill-opacity:1;fill-rule:nonzero;stroke:none;stroke-width:0.352778"
       aria-label="1&#10;2&#10;3" />
    <path
       id="path37"
       d="M 1.7226875,7.8124999e-6 V -0.31639844 c 0.5625,-0.005859 0.890625,-0.0175781 0.984375,-0.0351563 0.09375,-0.0234375 0.1640625,-0.0585938 0.2109375,-0.10546875 0.046875,-0.0615234 0.082031,-0.16992187 0.1054688,-0.328125 0.029297,-0.26367181 0.046875,-0.53906241 0.046875,-0.82031241 V -2.0038984 H 1.88675 c -0.6503906,0 -1.22753906,0.011719 -1.734375,0.035156 L 0.07034375,-2.2617109 c 0.27246094,-0.5214844 0.63867188,-1.1601563 1.10156255,-1.9101563 0.6708984,-1.0927734 1.3417968,-2.1474609 2.015625,-3.1640625 0.038086,-0.014648 0.1347656,-0.052734 0.2929687,-0.1171875 0.2636719,-0.1083984 0.421875,-0.1699219 0.46875,-0.1875 l 0.1289063,0.070312 c -0.023437,0.4306641 -0.041016,0.9580078 -0.046875,1.5820313 -0.017578,1.3300781 -0.023437,2.0595703 -0.023437,2.1914062 v 1.1132813 c 0.4833984,-0.00586 0.8818359,-0.017578 1.1953125,-0.035156 -0.017578,0.1728516 -0.023437,0.2900391 -0.023437,0.3515625 l 0.023437,0.3984375 C 4.8340156,-1.9921797 4.5263984,-2.0038984 4.277375,-2.0038984 H 4.0078438 v 0.3632812 c 0,0.6035156 0.023437,0.96972657 0.070312,1.10156251 0.023437,0.0556641 0.064453,0.0996094 0.1289062,0.12890625 0.140625,0.0556641 0.4716797,0.0878906 0.9960938,0.09375 V 7.8124999e-6 C 4.4297188,-0.02928906 3.8349922,-0.04686719 3.4219063,-0.04686719 c -0.4541016,0 -1.0195313,0.01757813 -1.6992188,0.0468750025 z M 0.77346875,-2.6835859 H 3.0703438 l 0.046875,-3.8203125 c -0.3925782,0.5625 -0.8320313,1.2509765 -1.3242188,2.0625 -0.4921875,0.8144531 -0.83203125,1.4003906 -1.01953125,1.7578125 z m 0,0"
       style="fill:#000000;fill-opacity:1;fill-rule:nonzero;stroke:none"
       aria-label="4"
       transform="matrix(0.35277776,0,0,0.35277776,81.379,143.9416)"
       clip-path="url(#clipPath38)" />
    <path
       id="path39"
       d="m 66.873437,131.96404 c -0.03101,-0.0848 -0.05374,-0.1509 -0.07028,-0.19844 l -0.128158,-0.31006 0.09508,-0.0537 c 0.112654,0.2067 0.181901,0.32246 0.206705,0.34726 0.02687,0.0248 0.08682,0.0538 0.177767,0.0868 0.09302,0.0331 0.188103,0.0496 0.285254,0.0496 0.126091,0 0.236678,-0.0258 0.330729,-0.0786 0.09612,-0.0517 0.170533,-0.13022 0.223243,-0.23564 0.05168,-0.10749 0.07855,-0.23565 0.07855,-0.38448 0,-0.22014 -0.05994,-0.3824 -0.177767,-0.48782 -0.118856,-0.10749 -0.260449,-0.16123 -0.425814,-0.16123 -0.09405,0 -0.180867,0.0186 -0.260449,0.0537 -0.05788,0.031 -0.128158,0.0909 -0.21084,0.1819 l -0.07855,-0.0248 0.02067,-0.46716 c 0.0021,-0.0713 0.0041,-0.12919 0.0041,-0.17363 v -0.339 c 0,-0.0992 -0.0031,-0.19947 -0.0083,-0.30179 -0.0031,-0.0382 -0.0041,-0.0703 -0.0041,-0.0951 l 0.02481,-0.0165 c 0.203605,0.0145 0.419613,0.0207 0.649056,0.0207 0.190169,0 0.418579,-0.006 0.686263,-0.0207 l 0.0124,0.0165 c -0.01137,0.0661 -0.01654,0.12402 -0.01654,0.17363 0,0.0279 10e-4,0.0724 0.0041,0.13229 l -0.01654,0.0124 c -0.176733,-0.0103 -0.440283,-0.0165 -0.789615,-0.0165 -0.130225,0 -0.251148,0.002 -0.363802,0.004 -0.01964,0.17363 -0.03307,0.43718 -0.04134,0.78962 0.101286,-0.0744 0.192237,-0.12506 0.272852,-0.15297 0.08268,-0.03 0.173633,-0.0455 0.272851,-0.0455 0.145728,0 0.279053,0.032 0.40101,0.0951 0.120922,0.0641 0.214973,0.15503 0.281119,0.27286 0.06615,0.11575 0.09922,0.24391 0.09922,0.38447 0,0.21807 -0.07441,0.42168 -0.223242,0.61185 -0.226343,0.28422 -0.528133,0.42581 -0.905371,0.42581 -0.08578,0 -0.157096,-0.007 -0.214974,-0.0207 -0.05788,-0.0145 -0.121956,-0.0382 -0.190169,-0.0744 z m 0,0"
       style="fill:#000000;fill-opacity:1;fill-rule:nonzero;stroke:none;stroke-width:0.352778"
       aria-label="5" />
    <path
       id="path40"
       d="m 154.50401,118.21635 c 0.0328,0.0176 0.0515,0.0529 0.048,0.0896 v 0 l -0.86465,9.10802 4.63902,-10.06052 -6.18948,-0.41698 z"
       style="fill:url(#linearGradient40);stroke:none;stroke-width:0.352778" />
    <path
       id="path41"
       d="m 0,0 13.821,-20.688 2.088,0.568 0.137,-0.504 -1.919,-0.522 13.895,-20.798 2.419,25.488 L 0,0 m 26.839,-17.687 -0.137,0.503 2.158,0.587 0.138,-0.503 -2.159,-0.587 m -4.317,-1.175 -0.137,0.504 2.158,0.587 0.137,-0.504 -2.158,-0.587 m -4.317,-1.174 -0.137,0.503 2.158,0.587 0.137,-0.503 z"
       style="fill:#c3c4d6 icc-color(sRGB-IEC61966-2, 0.1, 0.76399231, 0.76799011, 0.84098816);fill-opacity:1;fill-rule:nonzero;stroke:none"
       transform="matrix(0.35277776,0,0,-0.35277776,143.62392,112.54374)"
       clip-path="url(#clipPath42)" />
    <path
       id="path43"
       d="m 0,0 -3.033,-3.187 -29.113,-30.76 1.524,0.415 0.137,-0.504 -1.575,-0.428 60.887,-8.684 L 0,0 m 10.527,-22.878 -0.137,0.504 2.159,0.587 0.137,-0.504 -2.159,-0.587 m -4.317,-1.175 -0.137,0.504 2.159,0.587 0.137,-0.503 -2.159,-0.588 m -4.317,-1.174 -0.137,0.504 2.159,0.587 0.137,-0.504 -2.159,-0.587 m -4.317,-1.175 -0.137,0.504 2.159,0.587 0.137,-0.503 -2.159,-0.588 m -4.317,-1.174 -0.137,0.504 2.159,0.587 0.137,-0.504 -2.159,-0.587 m -4.317,-1.175 -0.137,0.504 2.158,0.587 0.137,-0.503 -2.158,-0.588 m -4.317,-1.174 -0.137,0.504 2.158,0.587 0.137,-0.504 -2.158,-0.587 m -4.317,-1.174 -0.137,0.503 2.158,0.587 0.137,-0.503 -2.158,-0.587 m -4.317,-1.175 -0.137,0.504 2.158,0.587 0.137,-0.504 -2.158,-0.587 m -4.317,-1.175 -0.137,0.504 2.158,0.588 0.137,-0.504 z"
       style="fill:#d7d8e4 icc-color(sRGB-IEC61966-2, 0.1, 0.84399414, 0.84599304, 0.89498901);fill-opacity:1;fill-rule:nonzero;stroke:none"
       transform="matrix(0.35277776,0,0,-0.35277776,143.28639,112.36993)"
       clip-path="url(#clipPath44)" />
    <path
       id="path45"
       d="M 0,0 -2.158,-0.587 -2.021,-1.091 0.137,-0.504 0,0 m -4.317,-1.174 -2.158,-0.588 0.137,-0.503 2.158,0.587 -0.137,0.504 m -4.317,-1.175 -2.159,-0.587 0.137,-0.504 2.159,0.587 -0.137,0.504 m -4.317,-1.174 -2.088,-0.568 0.306,-0.458 1.919,0.522 z"
       style="fill:#9c9dab icc-color(sRGB-IEC61966-2, 0.1, 0.61099243, 0.61399841, 0.67199707);fill-opacity:1;fill-rule:nonzero;stroke:none"
       transform="matrix(0.35277776,0,0,-0.35277776,153.80523,118.39869)"
       clip-path="url(#clipPath46)" />
    <path
       id="path47"
       d="M 0,0 -2.159,-0.587 -2.022,-1.091 0.137,-0.504 0,0 m -4.317,-1.175 -2.159,-0.587 0.137,-0.503 2.159,0.587 -0.137,0.503 m -4.317,-1.174 -2.159,-0.587 0.137,-0.504 2.159,0.587 -0.137,0.504 m -4.317,-1.174 -2.159,-0.588 0.137,-0.504 2.159,0.588 -0.137,0.504 m -4.317,-1.175 -2.159,-0.587 0.137,-0.504 2.159,0.587 -0.137,0.504 m -4.318,-1.174 -2.158,-0.588 0.137,-0.503 2.158,0.587 -0.137,0.504 m -4.317,-1.175 -2.158,-0.587 0.137,-0.504 2.158,0.587 -0.137,0.504 m -4.317,-1.174 -2.158,-0.588 0.137,-0.503 2.158,0.587 -0.137,0.504 m -4.317,-1.175 -2.158,-0.587 0.137,-0.504 2.158,0.587 -0.137,0.504 m -4.317,-1.174 -2.158,-0.588 0.137,-0.503 2.158,0.587 z"
       style="fill:#acadb7 icc-color(sRGB-IEC61966-2, 0.1, 0.67498779, 0.67698669, 0.71598816);fill-opacity:1;fill-rule:nonzero;stroke:none"
       transform="matrix(0.35277776,0,0,-0.35277776,147.71339,120.05597)"
       clip-path="url(#clipPath48)" />
    <path
       id="path49"
       d="m 0,0 -0.024,-0.025 0.46,-0.067 0.071,0.02 z"
       style="fill:#cccccc icc-color(sRGB-IEC61966-2, 0.1, 0.79998779, 0.80099487, 0.79998779);fill-opacity:1;fill-rule:nonzero;stroke:none"
       transform="matrix(0.35277776,0,0,-0.35277776,131.79736,124.50262)"
       clip-path="url(#clipPath50)" />
    <path
       id="path51"
       d="m 0,0 -1.524,-0.415 -0.421,-0.445 0.507,-0.072 1.575,0.428 z"
       style="fill:#acadb7 icc-color(sRGB-IEC61966-2, 0.1, 0.67498779, 0.67698669, 0.71598816);fill-opacity:1;fill-rule:nonzero;stroke:none"
       transform="matrix(0.35277776,0,0,-0.35277776,132.48366,124.19927)"
       clip-path="url(#clipPath52)" />
    <path
       id="path53"
       d="M 0,0 2.505,26.388 -28.889,43.359 -61.611,8.787 c -0.099,-0.105 -0.264,-0.109 -0.369,-0.01 -0.104,0.099 -0.109,0.264 -0.01,0.369 l 32.859,34.718 c 0.081,0.085 0.21,0.106 0.314,0.05 L 2.905,26.765 c 0.092,-0.05 0.146,-0.15 0.136,-0.254 L 0.52,-0.049 C 0.506,-0.193 0.379,-0.298 0.235,-0.284 0.092,-0.271 -0.014,-0.144 0,0"
       style="fill:#000100;fill-opacity:1;fill-rule:nonzero;stroke:none"
       transform="matrix(0.35277776,0,0,-0.35277776,153.47933,127.65833)"
       clip-path="url(#clipPath54)" />
    <path
       id="path55"
       d="m 0,0 29.201,-43.709 c 0.08,-0.12 0.048,-0.282 -0.072,-0.362 -0.12,-0.08 -0.282,-0.048 -0.362,0.072 L -0.434,-0.29 c -0.08,0.12 -0.048,0.282 0.072,0.362 C -0.242,0.152 -0.08,0.12 0,0"
       style="fill:#000100;fill-opacity:1;fill-rule:nonzero;stroke:none"
       transform="matrix(0.35277776,0,0,-0.35277776,143.346,112.12778)"
       clip-path="url(#clipPath56)" />
    <path
       id="path57"
       d="m 0,0 -0.513,-0.139 -0.031,0.116 -0.042,-0.044 c -0.013,-0.014 -0.028,-0.026 -0.043,-0.036 l 10.889,-16.008 50.766,7.196 c -0.003,0.02 -0.004,0.04 -0.002,0.061 l 0.002,0.013 z"
       style="fill:#d7d8e4 icc-color(sRGB-IEC61966-2, 0.1, 0.84399414, 0.84599304, 0.89498901);fill-opacity:1;fill-rule:nonzero;stroke:none"
       transform="matrix(0.35277776,0,0,-0.35277776,131.95132,124.53494)"
       clip-path="url(#clipPath58)" />
    <path
       id="path59"
       d="m 0,0 -0.084,-0.089 0.031,-0.117 0.513,0.139 z"
       style="fill:#aeafbb icc-color(sRGB-IEC61966-2, 0.1, 0.68299866, 0.68598938, 0.73399353);fill-opacity:1;fill-rule:nonzero;stroke:none"
       transform="matrix(0.35277776,0,0,-0.35277776,131.78904,124.51141)"
       clip-path="url(#clipPath60)" />
    <path
       id="path61"
       d="m 0,0 h -0.001 l 0.146,-0.215 c 0.015,0.01 0.03,0.022 0.043,0.036 L 0.23,-0.135 0.314,-0.046 0,0 M 61.8,-8.953 61.798,-8.966 C 61.796,-8.987 61.797,-9.008 61.8,-9.028 l 0.111,0.016 c -0.02,0.014 -0.039,0.031 -0.055,0.05 z"
       style="fill:#0b0d18 icc-color(sRGB-IEC61966-2, 0.1, 0.04299927, 0.05099487, 0.09399414);fill-opacity:1;fill-rule:nonzero;stroke:none"
       transform="matrix(0.35277776,0,0,-0.35277776,131.67823,124.49536)"
       clip-path="url(#clipPath62)" />
    <path
       id="path63"
       d="m 0,0 c 0.016,-0.02 0.035,-0.036 0.055,-0.05 l 0.147,0.021 v 0 z"
       style="fill:#0b0d18 icc-color(sRGB-IEC61966-2, 0.1, 0.04299927, 0.05099487, 0.09399414);fill-opacity:1;fill-rule:nonzero;stroke:none"
       transform="matrix(0.35277776,0,0,-0.35277776,153.49969,127.65681)"
       clip-path="url(#clipPath64)" />
    <path
       id="path65"
       d="M 0,0 11.035,-16.223 62.06,-8.991 Z"
       style="fill:none;stroke:#000100;stroke-width:0.522;stroke-linecap:round;stroke-linejoin:round;stroke-miterlimit:4;stroke-dasharray:none;stroke-opacity:1"
       transform="matrix(0.35277776,0,0,-0.35277776,131.67774,124.49529)"
       clip-path="url(#clipPath66)" />
    <path
       id="path67"
       d="m 0,0 -33.763,-20.211 22.728,36.434"
       style="fill:none;stroke:#000100;stroke-width:0.522;stroke-linecap:round;stroke-linejoin:round;stroke-miterlimit:4;stroke-dasharray:none;stroke-opacity:1"
       transform="matrix(0.35277776,0,0,-0.35277776,135.57071,130.21847)"
       clip-path="url(#clipPath68)" />
    <path
       id="path69"
       d="m 0,0 c 0,-0.741 -0.601,-1.342 -1.342,-1.342 -0.741,0 -1.343,0.601 -1.343,1.342 0,0.741 0.602,1.342 1.343,1.342 C -0.601,1.342 0,0.741 0,0"
       style="fill:#000100;fill-opacity:1;fill-rule:nonzero;stroke:none"
       transform="matrix(0.35277776,0,0,-0.35277776,124.13334,137.3486)"
       clip-path="url(#clipPath70)" />
    <path
       id="path71"
       d="m 0,0 c 0,-0.741 -0.602,-1.342 -1.343,-1.342 -0.741,0 -1.342,0.601 -1.342,1.342 0,0.741 0.601,1.342 1.342,1.342 C -0.602,1.342 0,0.741 0,0"
       style="fill:#000100;fill-opacity:1;fill-rule:nonzero;stroke:none"
       transform="matrix(0.35277776,0,0,-0.35277776,132.15145,124.49529)"
       clip-path="url(#clipPath72)" />
    <path
       id="path73"
       d="m 0,0 c 0,-0.741 -0.601,-1.342 -1.342,-1.342 -0.741,0 -1.343,0.601 -1.343,1.342 0,0.741 0.602,1.342 1.343,1.342 C -0.601,1.342 0,0.741 0,0"
       style="fill:#000100;fill-opacity:1;fill-rule:nonzero;stroke:none"
       transform="matrix(0.35277776,0,0,-0.35277776,136.04407,130.21847)"
       clip-path="url(#clipPath74)" />
    <path
       id="path75"
       d="m 0,0 c 0,-0.741 -0.601,-1.342 -1.343,-1.342 -0.741,0 -1.342,0.601 -1.342,1.342 0,0.741 0.601,1.342 1.342,1.342 C -0.601,1.342 0,0.741 0,0"
       style="fill:#000100;fill-opacity:1;fill-rule:nonzero;stroke:none"
       transform="matrix(0.35277776,0,0,-0.35277776,153.97612,127.59846)"
       clip-path="url(#clipPath76)" />
    <path
       id="path77"
       d="m 0,0 c 0,-0.741 -0.602,-1.342 -1.343,-1.342 -0.741,0 -1.342,0.601 -1.342,1.342 0,0.741 0.601,1.342 1.342,1.342 C -0.602,1.342 0,0.741 0,0"
       style="fill:#000100;fill-opacity:1;fill-rule:nonzero;stroke:none"
       transform="matrix(0.35277776,0,0,-0.35277776,155.00206,118.2974)"
       clip-path="url(#clipPath78)" />
    <path
       id="path79"
       d="m 0,0 c 0,-0.741 -0.601,-1.342 -1.342,-1.342 -0.741,0 -1.343,0.601 -1.343,1.342 0,0.741 0.602,1.342 1.343,1.342 C -0.601,1.342 0,0.741 0,0"
       style="fill:#000100;fill-opacity:1;fill-rule:nonzero;stroke:none"
       transform="matrix(0.35277776,0,0,-0.35277776,143.81139,112.24748)"
       clip-path="url(#clipPath80)" />
    <path
       id="path81"
       d="m 140.64258,111.07332 c 0,-0.3576 0.0258,-0.63458 0.0785,-0.83096 0.0517,-0.19843 0.14572,-0.3607 0.28112,-0.48782 0.13746,-0.12609 0.31109,-0.19017 0.52089,-0.19017 0.10749,0 0.20464,0.0186 0.29353,0.0537 0.091,0.0362 0.16536,0.0816 0.22324,0.13643 0.0579,0.0558 0.10542,0.12299 0.14469,0.20257 0.0413,0.0806 0.0703,0.1602 0.0868,0.23978 0.0382,0.185 0.0579,0.38654 0.0579,0.60358 0,0.28422 -0.0227,0.5271 -0.0661,0.7276 -0.0279,0.11576 -0.0651,0.22221 -0.11162,0.31833 -0.0475,0.094 -0.10232,0.1757 -0.16536,0.24391 -0.0641,0.0661 -0.14056,0.11886 -0.23151,0.1571 -0.091,0.0413 -0.19431,0.062 -0.31006,0.062 -0.1385,0 -0.25632,-0.0289 -0.35554,-0.0868 -0.0971,-0.06 -0.17363,-0.13643 -0.23151,-0.22738 -0.0827,-0.12919 -0.13952,-0.27699 -0.1695,-0.44235 -0.031,-0.16743 -0.0455,-0.32763 -0.0455,-0.47956 z m 0.32659,-0.10749 c 0,0.18191 0.0124,0.36174 0.0372,0.53744 0.0248,0.17363 0.0631,0.31419 0.11576,0.42168 0.0331,0.0744 0.0837,0.13539 0.15296,0.1819 0.0682,0.0475 0.14573,0.0703 0.23151,0.0703 0.14263,0 0.25321,-0.0599 0.33073,-0.1819 0.10955,-0.17053 0.16536,-0.51263 0.16536,-1.02526 0,-0.22014 -0.0124,-0.41755 -0.0372,-0.59118 -0.0227,-0.1757 -0.061,-0.32039 -0.11576,-0.43408 -0.0331,-0.0713 -0.0827,-0.12919 -0.14883,-0.17363 -0.0641,-0.0465 -0.13952,-0.0703 -0.22737,-0.0703 -0.0992,0 -0.18811,0.032 -0.26459,0.0951 -0.0775,0.0641 -0.13642,0.17777 -0.17776,0.34313 -0.0414,0.16537 -0.062,0.44132 -0.062,0.82682 z m 14.66681,5.91075 -0.0331,-0.0124 -0.0207,-0.15296 0.0207,-0.0207 c 0.13436,-0.0382 0.28216,-0.092 0.44236,-0.16123 0.23357,-0.0992 0.38447,-0.16537 0.45061,-0.19844 l 0.0496,0.0165 c -0.0196,0.57877 -0.0289,0.91157 -0.0289,0.99632 v 0.70693 c 0,0.27905 0.002,0.49093 0.008,0.63665 0.005,0.0827 0.0165,0.1354 0.0331,0.1571 0.0165,0.0227 0.0413,0.0393 0.0744,0.0496 0.0331,0.008 0.14263,0.0165 0.33073,0.0248 v 0.11576 c -0.32039,-0.0103 -0.5209,-0.0165 -0.60358,-0.0165 -0.061,0 -0.27492,0.006 -0.64079,0.0165 v -0.11576 c 0.19224,-0.0103 0.30283,-0.0186 0.33073,-0.0248 0.03,-0.008 0.0517,-0.0186 0.0662,-0.0331 0.0165,-0.0134 0.0269,-0.0331 0.0331,-0.0579 0.0103,-0.0413 0.0186,-0.154 0.0248,-0.339 0.008,-0.18707 0.0124,-0.32866 0.0124,-0.42581 V 117.294 c 0,-0.30593 0,-0.49713 0,-0.57464 0,-0.0331 -0.006,-0.0537 -0.0165,-0.062 -0.003,-0.005 -0.0103,-0.008 -0.0207,-0.008 -0.0114,0 -0.0403,0.0103 -0.0868,0.0289 -0.21498,0.0972 -0.3576,0.1633 -0.42582,0.19844 z m -1.16169,12.44886 v -0.10749 c 0.0382,-0.0496 0.10852,-0.12609 0.21084,-0.23151 l 0.42168,-0.43822 c 0.0331,-0.0331 0.11266,-0.12195 0.23978,-0.26871 0.0961,-0.10956 0.17157,-0.20878 0.22738,-0.29766 0.0548,-0.0909 0.0951,-0.1788 0.11989,-0.26458 0.0248,-0.0847 0.0372,-0.1664 0.0372,-0.24392 0,-0.13229 -0.0372,-0.24494 -0.11162,-0.33899 -0.0941,-0.12919 -0.23151,-0.19431 -0.41341,-0.19431 -0.0992,0 -0.1881,0.0165 -0.26458,0.0496 -0.0744,0.0331 -0.12609,0.0703 -0.15297,0.11162 -0.0248,0.0393 -0.062,0.15193 -0.11162,0.339 h -0.11575 c 0.03,-0.16743 0.0517,-0.34106 0.0661,-0.5209 0.0796,-0.0765 0.14573,-0.13229 0.19844,-0.16536 0.0548,-0.0331 0.12092,-0.0589 0.19844,-0.0785 0.0765,-0.0186 0.16226,-0.0289 0.25631,-0.0289 0.16537,0 0.30386,0.0289 0.41755,0.0868 0.11575,0.0558 0.20671,0.13952 0.27285,0.25218 0.0682,0.11059 0.10335,0.23564 0.10335,0.3762 0,0.15193 -0.0393,0.30076 -0.11575,0.44649 -0.0775,0.14676 -0.23875,0.3421 -0.48369,0.58704 l -0.3266,0.32246 c -0.11575,0.11576 -0.20464,0.20981 -0.26458,0.28112 h 0.83096 c 0.16536,0 0.32866,-0.008 0.49196,-0.0248 l 0.0124,0.0124 c -0.008,0.0496 -0.0124,0.10646 -0.0124,0.1695 0,0.0579 0.004,0.10749 0.0124,0.14883 l -0.0124,0.0207 c -0.0909,-0.005 -0.19431,-0.009 -0.31006,-0.0124 -0.25632,-0.005 -0.42892,-0.008 -0.51677,-0.008 -0.11058,0 -0.29559,0.003 -0.55397,0.008 -0.14366,0.003 -0.26045,0.007 -0.3514,0.0124 z m -24.62588,-5.93246 c -0.0196,-0.10748 -0.0362,-0.19017 -0.0496,-0.24804 -0.008,-0.0382 -0.0362,-0.14263 -0.0827,-0.3142 l 0.10336,-0.0413 c 0.0796,0.21291 0.17053,0.3576 0.27285,0.43408 0.10128,0.0744 0.23564,0.11162 0.40101,0.11162 0.12402,0 0.22737,-0.0227 0.31006,-0.0703 0.0827,-0.0496 0.14882,-0.1261 0.19843,-0.23152 0.0517,-0.10438 0.0785,-0.22324 0.0785,-0.35553 0,-0.17363 -0.0455,-0.30696 -0.13642,-0.40101 -0.0889,-0.0961 -0.20878,-0.14469 -0.35967,-0.14469 -0.0496,0 -0.0971,0.006 -0.14056,0.0165 -0.0444,0.0114 -0.10956,0.0351 -0.1943,0.0703 l -0.0248,-0.0207 0.0413,-0.2067 c 0.10129,0.006 0.17053,0.008 0.20671,0.008 0.15089,0 0.26872,-0.0538 0.3514,-0.16123 0.0847,-0.10749 0.12816,-0.22945 0.12816,-0.36794 0,-0.12092 -0.0445,-0.22428 -0.1323,-0.31006 -0.0889,-0.0847 -0.20153,-0.12816 -0.33899,-0.12816 -0.0827,0 -0.1633,0.0165 -0.23978,0.0496 -0.0744,0.031 -0.14056,0.0744 -0.19844,0.1323 -0.0227,0.0475 -0.0579,0.13642 -0.10749,0.26871 h -0.11575 l 0.11575,-0.45475 c 0.0848,-0.0879 0.16537,-0.14986 0.23978,-0.18604 0.12092,-0.0548 0.25425,-0.0827 0.40101,-0.0827 0.21498,0 0.38447,0.0568 0.5085,0.1695 0.12402,0.11369 0.18603,0.25011 0.18603,0.40928 0,0.10749 -0.0331,0.21497 -0.0992,0.32246 -0.0641,0.10542 -0.1726,0.21291 -0.32659,0.32246 0.14263,0.0196 0.25631,0.0527 0.339,0.0992 0.0827,0.0444 0.14572,0.10955 0.19017,0.1943 0.0434,0.0827 0.0661,0.17674 0.0661,0.28112 0,0.14883 -0.0475,0.29662 -0.14056,0.44235 -0.094,0.14676 -0.22738,0.26665 -0.40101,0.35967 -0.17156,0.093 -0.3576,0.14056 -0.5581,0.14056 -0.0889,0 -0.1695,-0.008 -0.24392,-0.0248 -0.0723,-0.0165 -0.15503,-0.0434 -0.24804,-0.0827 z m 6.11332,10.46138 v -0.11162 c 0.19844,-0.002 0.31419,-0.006 0.34726,-0.0124 0.0331,-0.008 0.0579,-0.0207 0.0744,-0.0372 0.0165,-0.0217 0.0289,-0.0599 0.0372,-0.11576 0.0103,-0.093 0.0165,-0.19017 0.0165,-0.28939 v -0.14056 h -0.41755 c -0.22944,0 -0.43305,0.004 -0.61185,0.0124 l -0.0289,-0.10335 c 0.0961,-0.18397 0.22531,-0.40928 0.3886,-0.67387 0.23668,-0.3855 0.47336,-0.75757 0.71107,-1.11621 0.0134,-0.005 0.0475,-0.0186 0.10335,-0.0413 0.093,-0.0382 0.14883,-0.0599 0.16537,-0.0661 l 0.0455,0.0248 c -0.008,0.15193 -0.0145,0.33796 -0.0165,0.55811 -0.006,0.46922 -0.008,0.72657 -0.008,0.77308 v 0.39274 c 0.17053,-0.002 0.31109,-0.006 0.42168,-0.0124 -0.006,0.061 -0.008,0.10232 -0.008,0.12403 l 0.008,0.14056 c -0.13023,-0.008 -0.23875,-0.0124 -0.3266,-0.0124 h -0.0951 v 0.12816 c 0,0.21291 0.008,0.3421 0.0248,0.38861 0.008,0.0196 0.0227,0.0351 0.0455,0.0455 0.0496,0.0196 0.1664,0.031 0.3514,0.0331 v 0.11163 c -0.27285,-0.0103 -0.48266,-0.0165 -0.62839,-0.0165 -0.16019,0 -0.35967,0.006 -0.59944,0.0165 z m -0.33487,-0.94671 h 0.81029 l 0.0165,-1.34772 c -0.1385,0.19843 -0.29353,0.44131 -0.46716,0.7276 -0.17363,0.28732 -0.29352,0.49403 -0.35967,0.62012 z m -14.65336,5.79499 c -0.031,-0.0848 -0.0538,-0.15089 -0.0703,-0.19844 l -0.12816,-0.31005 0.0951,-0.0538 c 0.11266,0.20671 0.1819,0.32246 0.20671,0.34727 0.0269,0.0248 0.0868,0.0537 0.17777,0.0868 0.093,0.0331 0.1881,0.0496 0.28525,0.0496 0.12609,0 0.23668,-0.0258 0.33073,-0.0785 0.0961,-0.0517 0.17053,-0.13023 0.22324,-0.23565 0.0517,-0.10749 0.0785,-0.23564 0.0785,-0.38447 0,-0.22014 -0.0599,-0.38241 -0.17777,-0.48783 -0.11885,-0.10748 -0.26045,-0.16123 -0.42581,-0.16123 -0.094,0 -0.18087,0.0186 -0.26045,0.0538 -0.0579,0.031 -0.12816,0.0909 -0.21084,0.1819 l -0.0786,-0.0248 0.0207,-0.46715 c 0.002,-0.0713 0.004,-0.12919 0.004,-0.17363 v -0.339 c 0,-0.0992 -0.003,-0.19947 -0.008,-0.30179 -0.003,-0.0382 -0.004,-0.0703 -0.004,-0.0951 l 0.0248,-0.0165 c 0.2036,0.0145 0.41961,0.0207 0.64905,0.0207 0.19017,0 0.41858,-0.006 0.68626,-0.0207 l 0.0124,0.0165 c -0.0114,0.0662 -0.0165,0.12403 -0.0165,0.17364 0,0.0279 0.001,0.0723 0.004,0.13229 l -0.0165,0.0124 c -0.17673,-0.0103 -0.44028,-0.0165 -0.78961,-0.0165 -0.13023,0 -0.25115,0.002 -0.3638,0.004 -0.0196,0.17363 -0.0331,0.43718 -0.0413,0.78962 0.10129,-0.0744 0.19224,-0.12506 0.27286,-0.15297 0.0827,-0.03 0.17363,-0.0455 0.27285,-0.0455 0.14572,0 0.27905,0.032 0.40101,0.0951 0.12092,0.0641 0.21497,0.15503 0.28112,0.27286 0.0661,0.11575 0.0992,0.24391 0.0992,0.38447 0,0.21807 -0.0744,0.42168 -0.22324,0.61185 -0.22634,0.28422 -0.52813,0.42581 -0.90537,0.42581 -0.0858,0 -0.15709,-0.007 -0.21497,-0.0207 -0.0579,-0.0145 -0.12196,-0.0382 -0.19017,-0.0744 z m 0,0"
       style="fill:#000000;fill-opacity:1;fill-rule:nonzero;stroke:none;stroke-width:0.352778"
       aria-label="0&#10;1&#10;2&#10;3&#10;4&#10;5" />
  </g>
</svg>
